<svg width="1512" height="502" viewBox="0 0 1512 502" fill="none" xmlns="http://www.w3.org/2000/svg">
<g clip-path="url(#clip0_190_10601)">
<path d="M274.933 1.0464C273.591 -0.333282 271.388 -0.356277 270.012 0.988909C268.635 2.33409 268.612 4.54158 269.954 5.92126C271.297 7.30093 273.499 7.32393 274.875 5.97874C276.252 4.63356 276.286 2.41458 274.933 1.0464Z" fill="#D8D8D8"/>
<path d="M293.78 20.4077C292.438 19.028 290.235 19.0051 288.859 20.3502C287.482 21.6954 287.459 23.9029 288.801 25.2826C290.143 26.6623 292.346 26.6968 293.722 25.3516C295.099 24.0064 295.122 21.7989 293.78 20.4192V20.4077Z" fill="#D8D8D8"/>
<path d="M312.626 39.7691C311.284 38.3894 309.082 38.3664 307.705 39.7116C306.329 41.0568 306.306 43.2642 307.648 44.6439C308.99 46.0236 311.193 46.0581 312.569 44.7129C313.946 43.3677 313.968 41.1602 312.626 39.7805V39.7691Z" fill="#D8D8D8"/>
<path d="M331.473 59.1191C330.131 57.7395 327.929 57.7165 326.552 59.0617C325.176 60.4068 325.153 62.6143 326.495 63.994C327.837 65.3737 330.039 65.4082 331.416 64.063C332.792 62.7178 332.827 60.5103 331.473 59.1306V59.1191Z" fill="#D8D8D8"/>
<path d="M350.32 78.4805C348.978 77.1008 346.775 77.0663 345.399 78.423C344.022 79.7682 344 81.9756 345.342 83.3553C346.684 84.735 348.886 84.7695 350.263 83.4243C351.639 82.0791 351.674 79.8716 350.331 78.492L350.32 78.4805Z" fill="#D8D8D8"/>
<path d="M369.155 97.8423C367.813 96.4627 365.611 96.4397 364.234 97.7734C362.858 99.1185 362.835 101.326 364.177 102.717C365.519 104.097 367.721 104.12 369.098 102.775C370.474 101.429 370.497 99.222 369.155 97.8423Z" fill="#D8D8D8"/>
<path d="M383.024 122.079C384.366 123.458 386.568 123.481 387.945 122.136C389.321 120.791 389.356 118.572 388.014 117.204C386.672 115.824 384.469 115.801 383.081 117.135C381.705 118.48 381.682 120.687 383.024 122.079Z" fill="#D8D8D8"/>
<path d="M255.948 19.626C254.606 18.2463 252.392 18.2119 251.016 19.557C249.639 20.9022 249.616 23.1097 250.959 24.4894C252.301 25.8691 254.503 25.8921 255.88 24.5584C257.256 23.2132 257.291 20.9942 255.948 19.626Z" fill="#D8D8D8"/>
<path d="M274.795 38.9761C273.453 37.5964 271.239 37.5734 269.863 38.9186C268.486 40.2638 268.463 42.4713 269.805 43.8509C271.148 45.2306 273.35 45.2651 274.727 43.9199C276.103 42.5747 276.126 40.3558 274.795 38.9761Z" fill="#D8D8D8"/>
<path d="M293.631 58.3374C292.288 56.9577 290.086 56.9347 288.71 58.2799C287.333 59.6251 287.299 61.8326 288.641 63.2123C289.983 64.5919 292.185 64.6264 293.562 63.2813C294.938 61.9361 294.961 59.7171 293.619 58.3374H293.631Z" fill="#D8D8D8"/>
<path d="M312.477 77.6987C311.135 76.3191 308.921 76.2961 307.556 77.6413C306.18 78.9864 306.157 81.1939 307.487 82.5736C308.83 83.9533 311.032 83.9878 312.408 82.6426C313.785 81.2974 313.819 79.0899 312.477 77.6987Z" fill="#D8D8D8"/>
<path d="M331.324 97.0488C329.982 95.6692 327.78 95.6462 326.403 96.9913C325.027 98.3365 325.004 100.544 326.346 101.924C327.688 103.303 329.89 103.326 331.267 101.993C332.643 100.647 332.678 98.44 331.324 97.0488Z" fill="#D8D8D8"/>
<path d="M350.171 116.41C348.829 115.03 346.626 115.007 345.25 116.353C343.873 117.698 343.839 119.905 345.181 121.285C346.523 122.665 348.726 122.699 350.102 121.354C351.479 120.009 351.502 117.801 350.159 116.41H350.171Z" fill="#D8D8D8"/>
<path d="M369.006 135.772C367.664 134.392 365.462 134.357 364.085 135.703C362.708 137.048 362.686 139.255 364.028 140.635C365.37 142.015 367.572 142.038 368.949 140.692C370.325 139.347 370.36 137.14 369.006 135.76V135.772Z" fill="#D8D8D8"/>
<path d="M236.953 38.1939C235.61 36.8142 233.408 36.7912 232.032 38.1364C230.655 39.4816 230.632 41.689 231.974 43.0687C233.316 44.4484 235.519 44.4829 236.895 43.1377C238.272 41.7925 238.295 39.585 236.953 38.2054V38.1939Z" fill="#D8D8D8"/>
<path d="M255.799 57.5557C254.457 56.176 252.255 56.153 250.878 57.4867C249.502 58.8319 249.467 61.0394 250.821 62.4306C252.163 63.8103 254.365 63.8332 255.742 62.4881C257.118 61.1429 257.141 58.9354 255.799 57.5557Z" fill="#D8D8D8"/>
<path d="M274.635 76.917C273.293 75.5374 271.09 75.5144 269.714 76.8481C268.326 78.1932 268.303 80.4007 269.656 81.7919C270.998 83.1716 273.201 83.1946 274.577 81.8494C275.954 80.5042 275.988 78.2967 274.635 76.917Z" fill="#D8D8D8"/>
<path d="M293.493 96.2671C292.151 94.8874 289.948 94.8644 288.572 96.2096C287.195 97.5548 287.172 99.7623 288.514 101.142C289.857 102.522 292.059 102.556 293.436 101.199C294.812 99.8543 294.846 97.6468 293.504 96.2671H293.493Z" fill="#D8D8D8"/>
<path d="M312.328 115.628C310.986 114.249 308.784 114.226 307.407 115.571C306.031 116.905 306.008 119.124 307.35 120.503C308.692 121.883 310.894 121.917 312.271 120.561C313.647 119.216 313.682 117.008 312.328 115.628Z" fill="#D8D8D8"/>
<path d="M331.175 134.99C329.833 133.61 327.63 133.587 326.254 134.932C324.877 136.277 324.843 138.485 326.197 139.865C327.539 141.244 329.741 141.279 331.118 139.934C332.494 138.588 332.517 136.381 331.175 135.001V134.99Z" fill="#D8D8D8"/>
<path d="M350.022 154.34C348.68 152.96 346.477 152.937 345.101 154.282C343.724 155.628 343.701 157.835 345.043 159.215C346.385 160.594 348.588 160.629 349.964 159.284C351.341 157.938 351.375 155.731 350.022 154.351V154.34Z" fill="#D8D8D8"/>
<path d="M217.957 56.7622C216.615 55.3825 214.412 55.3595 213.036 56.7047C211.659 58.0499 211.636 60.2574 212.978 61.6371C214.32 63.0168 216.523 63.0512 217.899 61.7061C219.276 60.3609 219.299 58.1534 217.957 56.7622Z" fill="#D8D8D8"/>
<path d="M236.803 76.1235C235.461 74.7439 233.259 74.7209 231.882 76.0661C230.506 77.4112 230.483 79.6187 231.825 80.9984C233.167 82.3781 235.37 82.4126 236.746 81.0559C238.123 79.7107 238.157 77.5032 236.803 76.112V76.1235Z" fill="#D8D8D8"/>
<path d="M255.65 95.4854C254.308 94.1057 252.106 94.0827 250.729 95.4279C249.353 96.7731 249.33 98.9805 250.672 100.36C252.014 101.74 254.216 101.774 255.593 100.429C256.969 99.084 256.992 96.8765 255.65 95.4854Z" fill="#D8D8D8"/>
<path d="M274.497 114.847C273.155 113.467 270.952 113.433 269.576 114.778C268.199 116.123 268.177 118.342 269.519 119.71C270.861 121.09 273.063 121.113 274.44 119.779C275.816 118.434 275.839 116.215 274.497 114.847Z" fill="#D8D8D8"/>
<path d="M293.344 134.208C292.002 132.828 289.799 132.805 288.423 134.139C287.046 135.484 287.023 137.692 288.365 139.071C289.719 140.451 291.91 140.474 293.298 139.14C294.674 137.795 294.697 135.588 293.355 134.208H293.344Z" fill="#D8D8D8"/>
<path d="M312.179 153.558C310.837 152.178 308.635 152.155 307.258 153.501C305.882 154.846 305.859 157.053 307.201 158.433C308.543 159.813 310.745 159.847 312.122 158.502C313.498 157.157 313.521 154.949 312.179 153.558Z" fill="#D8D8D8"/>
<path d="M331.026 172.919C329.684 171.54 327.47 171.517 326.105 172.862C324.728 174.207 324.705 176.415 326.047 177.794C327.39 179.174 329.592 179.208 330.968 177.863C332.345 176.518 332.379 174.311 331.037 172.919H331.026Z" fill="#D8D8D8"/>
<path d="M198.972 75.3418C197.63 73.9621 195.428 73.9391 194.051 75.2843C192.675 76.6295 192.64 78.837 193.994 80.2167C195.336 81.5963 197.538 81.6308 198.915 80.2742C200.291 78.929 200.314 76.7215 198.972 75.3418Z" fill="#D8D8D8"/>
<path d="M217.808 94.7031C216.465 93.3235 214.263 93.3005 212.886 94.6456C211.51 95.9908 211.476 98.1983 212.829 99.578C214.171 100.958 216.374 100.992 217.75 99.6355C219.127 98.2903 219.161 96.0828 217.808 94.7031Z" fill="#D8D8D8"/>
<path d="M236.654 114.065C235.312 112.685 233.11 112.662 231.733 113.996C230.357 115.341 230.334 117.549 231.676 118.928C233.018 120.308 235.22 120.343 236.597 118.997C237.973 117.652 237.996 115.445 236.654 114.065Z" fill="#D8D8D8"/>
<path d="M255.501 133.415C254.159 132.035 251.957 132.012 250.58 133.346C249.204 134.691 249.169 136.898 250.523 138.289C251.865 139.669 254.067 139.692 255.444 138.347C256.82 137.002 256.843 134.794 255.501 133.415Z" fill="#D8D8D8"/>
<path d="M274.348 152.776C273.006 151.397 270.803 151.374 269.427 152.707C268.05 154.053 268.027 156.26 269.369 157.64C270.712 159.019 272.914 159.054 274.29 157.709C275.667 156.364 275.69 154.156 274.348 152.776Z" fill="#D8D8D8"/>
<path d="M293.195 172.138C291.852 170.758 289.65 170.735 288.273 172.069C286.897 173.414 286.874 175.633 288.216 177.013C289.558 178.392 291.761 178.415 293.137 177.07C294.514 175.725 294.537 173.517 293.195 172.138Z" fill="#D8D8D8"/>
<path d="M312.03 191.488C310.688 190.108 308.485 190.085 307.109 191.419C305.732 192.764 305.709 194.972 307.052 196.363C308.394 197.742 310.596 197.765 311.973 196.42C313.349 195.075 313.384 192.868 312.041 191.488H312.03Z" fill="#D8D8D8"/>
<path d="M179.976 93.9214C178.634 92.5418 176.432 92.5188 175.055 93.8525C173.679 95.2091 173.644 97.4166 174.986 98.7848C176.329 100.164 178.531 100.199 179.907 98.8538C181.284 97.5086 181.307 95.3011 179.965 93.9214H179.976Z" fill="#D8D8D8"/>
<path d="M198.823 113.271C197.481 111.892 195.279 111.857 193.902 113.214C192.526 114.559 192.503 116.767 193.833 118.146C195.175 119.526 197.378 119.561 198.754 118.215C200.131 116.87 200.165 114.663 198.812 113.283L198.823 113.271Z" fill="#D8D8D8"/>
<path d="M217.658 132.633C216.316 131.253 214.114 131.23 212.737 132.575C211.361 133.921 211.326 136.128 212.669 137.508C214.011 138.887 216.213 138.922 217.601 137.577C218.978 136.231 219.001 134.024 217.658 132.633Z" fill="#D8D8D8"/>
<path d="M236.505 151.995C235.163 150.615 232.961 150.592 231.584 151.926C230.208 153.271 230.173 155.478 231.515 156.858C232.857 158.238 235.06 158.272 236.448 156.916C237.824 155.57 237.847 153.363 236.505 151.983V151.995Z" fill="#D8D8D8"/>
<path d="M255.352 171.356C254.01 169.976 251.807 169.942 250.431 171.287C249.054 172.632 249.02 174.84 250.362 176.219C251.704 177.599 253.907 177.634 255.283 176.277C256.66 174.932 256.694 172.724 255.341 171.345L255.352 171.356Z" fill="#D8D8D8"/>
<path d="M274.199 190.706C272.857 189.326 270.654 189.292 269.278 190.637C267.901 191.982 267.878 194.201 269.209 195.569C270.551 196.949 272.753 196.984 274.141 195.638C275.518 194.293 275.541 192.074 274.199 190.706Z" fill="#D8D8D8"/>
<path d="M293.046 210.067C291.703 208.688 289.501 208.653 288.125 209.998C286.748 211.344 286.725 213.563 288.067 214.931C289.409 216.31 291.612 216.345 292.988 214.988C294.365 213.643 294.399 211.436 293.046 210.056V210.067Z" fill="#D8D8D8"/>
</g>
<g clip-path="url(#clip1_190_10601)">
<path d="M1363.63 5.46216L1190.47 69.3794L1254.38 242.542L1427.55 178.624L1363.63 5.46216Z" stroke="#B6B6B6" stroke-width="0.75" stroke-linecap="round" stroke-linejoin="round"/>
<path d="M1243.71 213.667L1416.87 149.743" stroke="#B6B6B6" stroke-width="0.75" stroke-linecap="round" stroke-linejoin="round"/>
<path d="M1233.07 184.833L1406.25 120.909" stroke="#B6B6B6" stroke-width="0.75" stroke-linecap="round" stroke-linejoin="round"/>
<path d="M1222.41 155.962L1395.58 92.0381" stroke="#B6B6B6" stroke-width="0.75" stroke-linecap="round" stroke-linejoin="round"/>
<path d="M1211.75 127.079L1384.93 63.167" stroke="#B6B6B6" stroke-width="0.75" stroke-linecap="round" stroke-linejoin="round"/>
<path d="M1201.11 98.2445L1374.28 34.3325" stroke="#B6B6B6" stroke-width="0.75" stroke-linecap="round" stroke-linejoin="round"/>
<path d="M1334.74 16.1138L1398.67 189.279" stroke="#B6B6B6" stroke-width="0.75" stroke-linecap="round" stroke-linejoin="round"/>
<path d="M1305.91 26.7534L1369.83 199.93" stroke="#B6B6B6" stroke-width="0.75" stroke-linecap="round" stroke-linejoin="round"/>
<path d="M1277.04 37.4175L1340.95 210.582" stroke="#B6B6B6" stroke-width="0.75" stroke-linecap="round" stroke-linejoin="round"/>
<path d="M1248.17 48.0693L1312.08 221.246" stroke="#B6B6B6" stroke-width="0.75" stroke-linecap="round" stroke-linejoin="round"/>
<path d="M1219.33 58.7095L1283.24 231.887" stroke="#B6B6B6" stroke-width="0.75" stroke-linecap="round" stroke-linejoin="round"/>
</g>
<g clip-path="url(#clip2_190_10601)">
<path d="M1228.58 403.05L1218.57 395L1197.31 401.56L1172 438.21L1179.4 443.27L1195.05 444.01L1172.51 472.16L1177.79 477.18L1223.26 436.79L1215.37 429L1212.05 429.05L1228.58 403.05Z" fill="#FF8717" stroke="#14090E" stroke-width="4" stroke-linecap="round" stroke-linejoin="round"/>
<path d="M1218.57 395L1187.28 395.47L1172 438.21L1187.67 437.97L1172.51 472.16L1215.37 429L1199.71 429.24L1218.57 395Z" fill="#FFD12B" stroke="#14090E" stroke-width="4" stroke-linecap="round" stroke-linejoin="round"/>
</g>
<g clip-path="url(#clip3_190_10601)">
<path d="M440.91 286.662L421.59 275.435L419.18 296.528L389 290.24L413.57 317.23L461.86 295.308L454.19 260.64L440.91 286.662Z" fill="#FFD12B" stroke="#14090E" stroke-width="4" stroke-linecap="round" stroke-linejoin="round"/>
</g>
<g clip-path="url(#clip4_190_10601)">
<path d="M1486.87 466.88C1482.44 457.92 1471.58 454.24 1462.62 458.68C1442.26 468.75 1417.51 460.38 1407.44 440.02C1397.37 419.66 1405.74 394.9 1426.1 384.83C1435.06 380.4 1438.74 369.54 1434.3 360.58C1429.87 351.62 1419.01 347.94 1410.05 352.38C1371.78 371.29 1356.05 417.81 1374.97 456.07C1393.89 494.33 1440.4 510.06 1478.66 491.14C1487.62 486.71 1491.29 475.85 1486.86 466.89L1486.87 466.88Z" fill="#14090E" stroke="#14090E" stroke-width="4" stroke-linecap="round" stroke-linejoin="round"/>
<path d="M1453.65 450.19C1433.29 460.26 1408.54 451.89 1398.47 431.53C1388.4 411.17 1396.77 386.41 1417.13 376.34L1401.08 343.88C1362.82 362.8 1347.09 409.32 1366.02 447.58C1384.94 485.83 1431.45 501.56 1469.71 482.65L1453.66 450.19H1453.65Z" fill="#58CC4E" stroke="#14090E" stroke-width="4" stroke-linecap="round" stroke-linejoin="round"/>
<path d="M1417.13 376.33C1408.17 380.77 1397.31 377.1 1392.88 368.13C1388.45 359.17 1392.12 348.31 1401.09 343.88C1410.05 339.45 1420.91 343.12 1425.34 352.08C1429.78 361.04 1426.1 371.9 1417.14 376.33H1417.13Z" fill="#FFD12B" stroke="#14090E" stroke-width="4" stroke-linecap="round" stroke-linejoin="round"/>
<path d="M1469.7 482.64C1460.74 487.07 1449.88 483.4 1445.45 474.44C1441.02 465.48 1444.69 454.62 1453.65 450.19C1462.61 445.75 1473.47 449.43 1477.9 458.39C1482.33 467.35 1478.66 478.21 1469.7 482.64Z" fill="#FF6EAD" stroke="#14090E" stroke-width="4" stroke-linecap="round" stroke-linejoin="round"/>
</g>
<g clip-path="url(#clip5_190_10601)">
<path d="M942.18 328.084L915 319.904L936.2 302.053L942.18 328.084Z" fill="#14090E" stroke="#14090E" stroke-width="4" stroke-linecap="round" stroke-linejoin="round"/>
<path d="M947.08 320.212L919.9 312.022L941.09 294.181L947.08 320.212Z" fill="#FF6EAD" stroke="#14090E" stroke-width="4" stroke-linecap="round" stroke-linejoin="round"/>
</g>
<g clip-path="url(#clip6_190_10601)">
<path d="M306.62 441.37C306.62 451.8 298.16 460.26 287.73 460.26C277.3 460.26 268.85 451.8 268.85 441.37C268.85 430.94 277.3 422.48 287.73 422.48C298.16 422.48 306.62 430.94 306.62 441.37Z" fill="#14090E" stroke="#14090E" stroke-width="4" stroke-linecap="round" stroke-linejoin="round"/>
<path d="M300.77 431.88C300.77 442.31 292.32 450.77 281.89 450.77C271.46 450.77 263 442.32 263 431.88C263 421.44 271.46 413 281.89 413C292.32 413 300.77 421.45 300.77 431.88Z" fill="#FF8717" stroke="#14090E" stroke-width="4" stroke-linecap="round" stroke-linejoin="round"/>
</g>
<g clip-path="url(#clip7_190_10601)">
<path d="M1179.91 236.38C1149.86 236.38 1125.5 260.74 1125.5 290.79C1125.5 320.84 1149.86 345.2 1179.91 345.2C1209.96 345.2 1234.32 320.84 1234.32 290.79C1234.32 260.74 1209.96 236.38 1179.91 236.38ZM1179.91 319.96C1163.8 319.96 1150.74 306.9 1150.74 290.79C1150.74 274.68 1163.8 261.62 1179.91 261.62C1196.02 261.62 1209.08 274.68 1209.08 290.79C1209.08 306.9 1196.02 319.96 1179.91 319.96Z" fill="#14090E" stroke="#14090E" stroke-width="4" stroke-linecap="round" stroke-linejoin="round"/>
<path d="M1165.41 222C1135.36 222 1111 246.36 1111 276.41C1111 306.46 1135.36 330.82 1165.41 330.82C1195.46 330.82 1219.82 306.46 1219.82 276.41C1219.82 246.36 1195.46 222 1165.41 222ZM1165.41 305.58C1149.3 305.58 1136.24 292.52 1136.24 276.41C1136.24 260.3 1149.3 247.24 1165.41 247.24C1181.52 247.24 1194.58 260.3 1194.58 276.41C1194.58 292.52 1181.52 305.58 1165.41 305.58Z" fill="#FFD12B" stroke="#14090E" stroke-width="4" stroke-linecap="round" stroke-linejoin="round"/>
</g>
<g clip-path="url(#clip8_190_10601)">
<path d="M1532.18 272.081C1525.78 267.516 1524.16 262.913 1522.85 259.224C1521.8 256.252 1521.11 254.295 1517.72 251.882C1514.33 249.469 1512.12 249.357 1508.77 249.199C1504.6 248.994 1499.41 248.742 1493.01 244.177C1486.6 239.612 1484.98 235.019 1483.68 231.32C1482.63 228.348 1481.94 226.391 1478.55 223.978C1475.16 221.565 1472.95 221.454 1469.6 221.295C1465.43 221.09 1460.24 220.839 1453.84 216.273C1447.44 211.708 1445.82 207.106 1444.52 203.416C1443.48 200.454 1442.79 198.488 1439.4 196.075C1436.71 194.155 1436.2 190.568 1438.26 188.062C1440.32 185.556 1444.17 185.072 1446.86 186.991C1453.27 191.556 1454.89 196.149 1456.19 199.848C1457.23 202.811 1457.93 204.777 1461.31 207.19C1464.69 209.603 1466.9 209.714 1470.26 209.873C1474.43 210.078 1479.61 210.329 1486.02 214.895C1492.42 219.46 1494.05 224.062 1495.35 227.752C1496.4 230.724 1497.09 232.68 1500.47 235.093C1503.86 237.506 1506.07 237.618 1509.42 237.777C1513.59 237.982 1518.78 238.242 1525.18 242.798C1531.58 247.364 1533.21 251.957 1534.51 255.656C1535.56 258.628 1536.25 260.584 1539.64 262.997C1542.33 264.916 1542.84 268.503 1540.78 271.01C1538.72 273.525 1534.87 274 1532.17 272.081H1532.18Z" fill="#14090E" stroke="#14090E" stroke-width="4" stroke-linecap="round" stroke-linejoin="round"/>
<path d="M1535.76 267.73C1529.35 263.165 1527.73 258.562 1526.43 254.873C1525.38 251.901 1524.69 249.944 1521.31 247.531C1517.92 245.118 1515.71 245.006 1512.36 244.848C1508.19 244.643 1503 244.391 1496.6 239.826C1490.19 235.261 1488.57 230.668 1487.27 226.969C1486.22 223.997 1485.53 222.04 1482.15 219.627C1478.76 217.214 1476.55 217.103 1473.2 216.944C1469.03 216.739 1463.85 216.488 1457.44 211.922C1451.04 207.357 1449.41 202.764 1448.11 199.065C1447.07 196.093 1446.37 194.137 1442.99 191.724C1440.3 189.804 1439.78 186.217 1441.84 183.711C1443.9 181.205 1447.75 180.72 1450.45 182.64C1456.85 187.205 1458.47 191.798 1459.77 195.497C1460.81 198.46 1461.5 200.425 1464.89 202.839C1468.28 205.252 1470.49 205.363 1473.84 205.522C1478.01 205.727 1483.2 205.978 1489.6 210.543C1496 215.109 1497.62 219.711 1498.93 223.401C1499.98 226.373 1500.67 228.329 1504.06 230.742C1507.44 233.155 1509.66 233.267 1513.01 233.435C1517.18 233.64 1522.37 233.891 1528.77 238.457C1535.17 243.022 1536.8 247.624 1538.1 251.314C1539.15 254.286 1539.84 256.242 1543.23 258.655C1545.92 260.575 1546.44 264.162 1544.38 266.668C1542.32 269.174 1538.47 269.659 1535.78 267.739L1535.76 267.73Z" fill="#C44CFC" stroke="#14090E" stroke-width="4" stroke-linecap="round" stroke-linejoin="round"/>
</g>
<g clip-path="url(#clip9_190_10601)">
<path d="M-11.1 192.58L-37.88 184.47L-33.87 171.25L-17.27 176.28L-5.35 157L16.34 163.57L28.26 144.28L49.96 150.86L61.89 131.57L88.68 139.67L84.68 152.89L68.05 147.86L56.12 167.15L34.43 160.58L22.51 179.87L0.809998 173.3L-11.1 192.58Z" fill="#14090E" stroke="#14090E" stroke-width="4" stroke-linecap="round" stroke-linejoin="round"/>
<path d="M-14.22 184.01L-41 175.9L-36.99 162.68L-20.39 167.72L-8.47 148.43L13.22 155L25.14 135.71L46.84 142.29L58.77 123L85.56 131.1L81.56 144.32L64.93 139.29L53 158.59L31.31 152.01L19.39 171.3L-2.31 164.73L-14.22 184.01Z" fill="#02A7FC" stroke="#14090E" stroke-width="4" stroke-linecap="round" stroke-linejoin="round"/>
</g>
<g clip-path="url(#clip10_190_10601)">
<path d="M-37.16 362.27L-41 325.15L-22.68 323.26L-20.3 346.28L9.57 350.97L12.68 381.05L42.56 385.75L45.67 415.83L75.54 420.54L79.41 457.67L61.09 459.57L58.69 436.53L28.81 431.81L25.7 401.74L-4.18 397.04L-7.29 366.96L-37.16 362.27Z" fill="#14090E" stroke="#14090E" stroke-width="4" stroke-linecap="round" stroke-linejoin="round"/>
<path d="M-28.2299 354.01L-32.0699 316.89L-13.7499 315L-11.3699 338.02L18.4901 342.71L21.6101 372.79L51.4801 377.49L54.6001 407.57L84.4701 412.28L88.3301 449.41L70.0101 451.31L67.6201 428.27L37.7301 423.56L34.6201 393.48L4.75005 388.78L1.64005 358.71L-28.2299 354.01Z" fill="#FFD12B" stroke="#14090E" stroke-width="4" stroke-linecap="round" stroke-linejoin="round"/>
</g>
<g clip-path="url(#clip11_190_10601)">
<path d="M242.88 294.48L212.41 311.16L223.85 287.92L254.32 271.24L242.88 294.48Z" fill="white" stroke="#14090E" stroke-width="4" stroke-linecap="round" stroke-linejoin="round"/>
<path d="M254.32 271.24L223.85 287.92L210.45 262.68L240.91 246L254.32 271.24Z" fill="#FF6EAD" stroke="#14090E" stroke-width="4" stroke-linecap="round" stroke-linejoin="round"/>
<path d="M210.45 262.68L199 285.92L212.41 311.16L223.85 287.92L210.45 262.68Z" fill="#58CC4E" stroke="#14090E" stroke-width="4" stroke-linecap="round" stroke-linejoin="round"/>
</g>
<defs>
<clipPath id="clip0_190_10601">
<rect width="215" height="216" fill="white" transform="translate(174)"/>
</clipPath>
<clipPath id="clip1_190_10601">
<rect width="238" height="238" fill="white" transform="translate(1190 5)"/>
</clipPath>
<clipPath id="clip2_190_10601">
<rect width="60.58" height="86.18" fill="white" transform="translate(1170 393)"/>
</clipPath>
<clipPath id="clip3_190_10601">
<rect width="76.86" height="60.3169" fill="white" transform="translate(387 258.777)"/>
</clipPath>
<clipPath id="clip4_190_10601">
<rect width="134.74" height="161.15" fill="white" transform="translate(1356 340)"/>
</clipPath>
<clipPath id="clip5_190_10601">
<rect width="36.08" height="37.6305" fill="white" transform="translate(913 292.317)"/>
</clipPath>
<clipPath id="clip6_190_10601">
<rect width="47.62" height="51.25" fill="white" transform="translate(261 411)"/>
</clipPath>
<clipPath id="clip7_190_10601">
<rect width="127.32" height="127.21" fill="white" transform="translate(1109 220)"/>
</clipPath>
<clipPath id="clip8_190_10601">
<rect width="112.63" height="95.5437" fill="white" transform="translate(1435 179.584)"/>
</clipPath>
<clipPath id="clip9_190_10601">
<rect width="133.68" height="73.58" fill="white" transform="translate(-43 121)"/>
</clipPath>
<clipPath id="clip10_190_10601">
<rect width="133.33" height="148.57" fill="white" transform="translate(-43 313)"/>
</clipPath>
<clipPath id="clip11_190_10601">
<rect width="59.32" height="69.16" fill="white" transform="translate(197 244)"/>
</clipPath>
</defs>
</svg>
